# xmcd CD database file
#
# Track frame offsets:
#	150
#	26019
#	67547
#	84676
#	119520
#	148947
#	173199
#	204322
#	238938
#	270289
#	303085
#
# Disc length: 4385 seconds
#
# Revision: 0
# Processed by: cddbd v1.5.1PL2 Copyright (c) Steve Scherf et al.
# Submitted via: CDex 1.51
#
DISCID=91111f0b
DTITLE=Leftfield - Leftism
DYEAR=1900
DGENRE=New Age
TTITLE0=Release the pressure
TTITLE1=Afro-Left
TTITLE2=Melt
TTITLE3=Song of life
TTITLE4=Original
TTITLE5=Black Flute
TTITLE6=Space Shanty
TTITLE7=Inspection check one
TTITLE8=Storm 3000
TTITLE9=Open up
TTITLE10=21st Century poem
EXTD=
EXTT0=
EXTT1=
EXTT2=
EXTT3=
EXTT4=
EXTT5=
EXTT6=
EXTT7=
EXTT8=
EXTT9=
EXTT10=
PLAYORDER=
